# xmcd
#
# Track frame offsets: 
#        187
#        24677
#        52730
#        74865
#        107330
#        143632
#
# Disc length: 2358 seconds
#
# Revision: 1
# Processed by: cddbd v1.5.2PL0 Copyright (c) Steve Scherf et al.
# Submitted via: ExactAudioCopy v0.99pb5
#
DISCID=4d093406
DTITLE=George Wallington George Wallington Quintet - The New York Scen
DTITLE=e
DYEAR=1957
DGENRE=Jazz
TTITLE0=In Salah
TTITLE1=Up Tohickon Creek
TTITLE2=Graduation Day
TTITLE3=Indian Summer
TTITLE4='Dis Mornin'
TTITLE5=Sol's Ollie
EXTD=YEAR: 1957
EXTT0=
EXTT1=
EXTT2=
EXTT3=
EXTT4=
EXTT5=
PLAYORDER=
